<svg width="300" height="75" viewBox="0 0 300 75" fill="none" xmlns="http://www.w3.org/2000/svg">
<rect width="300" height="75" fill="#37517E"/>
<rect width="300" height="75" fill="#37517E"/>
<g filter="url(#filter0_d_127_2)">
<path d="M45.5508 44.3125V10.7207H58.5527C62.3262 10.7207 65.1289 11.5273 66.9609 13.1406C68.793 14.7266 69.709 16.9277 69.709 19.7441C69.709 21.248 69.3535 22.5879 68.6426 23.7637C67.959 24.9121 67.0566 25.8145 65.9355 26.4707C67.1934 26.9902 68.3281 27.9336 69.3398 29.3008C70.3516 30.6406 70.8574 32.3086 70.8574 34.3047C70.8574 37.2305 69.9141 39.6367 68.0273 41.5234C66.1406 43.3828 63.5293 44.3125 60.1934 44.3125H45.5508ZM52.3594 38.4883H59.209C60.4121 38.4883 61.4648 38.1328 62.3672 37.4219C63.2969 36.7109 63.7617 35.6719 63.7617 34.3047C63.7617 33.0469 63.3516 32.0078 62.5312 31.1875C61.7383 30.3398 60.5762 29.916 59.0449 29.916H52.3594V38.4883ZM52.3594 24.1738H58.0195C59.4141 24.1738 60.5215 23.8457 61.3418 23.1895C62.1895 22.5332 62.6133 21.5625 62.6133 20.2773C62.6133 17.8164 61.123 16.5859 58.1426 16.5859H52.3594V24.1738ZM75.9633 28.3359C75.9633 23.3099 77.2393 19.2734 79.7914 16.2266C82.3695 13.1536 85.7549 11.6172 89.9477 11.6172C94.1404 11.6172 97.5128 13.1536 100.065 16.2266C102.643 19.2734 103.932 23.3099 103.932 28.3359C103.932 33.362 102.643 37.3984 100.065 40.4453C97.5128 43.4922 94.1404 45.0156 89.9477 45.0156C85.7289 45.0156 82.3435 43.4922 79.7914 40.4453C77.2393 37.3984 75.9633 33.362 75.9633 28.3359ZM82.682 28.3359C82.682 31.7995 83.3201 34.5208 84.5961 36.5C85.8721 38.4792 87.656 39.4688 89.9477 39.4688C92.2393 39.4688 94.0232 38.4792 95.2992 36.5C96.5753 34.4948 97.2133 31.7734 97.2133 28.3359C97.2133 24.9245 96.5753 22.2161 95.2992 20.2109C94.0232 18.2057 92.2393 17.2031 89.9477 17.2031C87.656 17.2031 85.8721 18.2057 84.5961 20.2109C83.3201 22.2161 82.682 24.9245 82.682 28.3359ZM108.674 29.1348C108.674 24.36 109.886 20.5254 112.311 17.6309C114.76 14.7116 117.976 13.252 121.959 13.252C125.942 13.252 129.146 14.7116 131.571 17.6309C134.02 20.5254 135.245 24.36 135.245 29.1348C135.245 33.9095 134.02 37.7441 131.571 40.6387C129.146 43.5332 125.942 44.9805 121.959 44.9805C117.952 44.9805 114.735 43.5332 112.311 40.6387C109.886 37.7441 108.674 33.9095 108.674 29.1348ZM115.057 29.1348C115.057 32.4251 115.663 35.0104 116.875 36.8906C118.088 38.7708 119.782 39.7109 121.959 39.7109C124.136 39.7109 125.831 38.7708 127.043 36.8906C128.256 34.9857 128.862 32.4004 128.862 29.1348C128.862 25.8939 128.256 23.321 127.043 21.416C125.831 19.5111 124.136 18.5586 121.959 18.5586C119.782 18.5586 118.088 19.5111 116.875 21.416C115.663 23.321 115.057 25.8939 115.057 29.1348ZM141.258 44.3125V15.5195H147.094V27.1914H147.199L157.219 15.5195H164.531L153.246 28.1758L164.602 44.3125H157.641L149.59 32.2891L147.094 35.1016V44.3125H141.258ZM168.898 44.3125V15.5195H187.777V20.5469H174.734V27.4375H186.405V32.3945H174.734V44.3125H168.898ZM193 44.3125V13.9199H199.161V39.043H212.52V44.3125H193ZM217.914 44.3125V12.3203H224.398V44.3125H217.914ZM229.65 44.3125L240.232 27.0859L230.225 10.7207H238.1L241.668 17.5293C241.777 17.7207 242.133 18.377 242.734 19.498C243.336 20.6191 243.773 21.4668 244.047 22.041H244.211C244.785 20.8926 245.578 19.3887 246.59 17.5293L250.199 10.7207H258.074L248.025 27.0859L258.648 44.3125H250.855L246.713 36.8066C246.357 36.2051 245.893 35.3711 245.318 34.3047C244.744 33.2383 244.375 32.5547 244.211 32.2539H244.047C243.992 32.3633 243.637 33.0332 242.98 34.2637C242.352 35.4668 241.887 36.3145 241.586 36.8066L237.484 44.3125H229.65Z" fill="white"/>
<path d="M45.5508 44.3125H44.5508V45.3125H45.5508V44.3125ZM45.5508 10.7207V9.7207H44.5508V10.7207H45.5508ZM66.9609 13.1406L66.3 13.8911L66.3064 13.8967L66.9609 13.1406ZM68.6426 23.7637L67.7868 23.2462L67.7833 23.2522L68.6426 23.7637ZM65.9355 26.4707L65.4304 25.6077L63.6913 26.6257L65.5538 27.395L65.9355 26.4707ZM69.3398 29.3008L68.536 29.8957L68.5418 29.9034L69.3398 29.3008ZM68.0273 41.5234L68.7293 42.2357L68.7345 42.2305L68.0273 41.5234ZM52.3594 38.4883H51.3594V39.4883H52.3594V38.4883ZM62.3672 37.4219L61.7597 36.6275L61.754 36.6319L61.7483 36.6364L62.3672 37.4219ZM62.5312 31.1875L61.801 31.8707L61.8124 31.8828L61.8241 31.8946L62.5312 31.1875ZM52.3594 29.916V28.916H51.3594V29.916H52.3594ZM52.3594 24.1738H51.3594V25.1738H52.3594V24.1738ZM61.3418 23.1895L60.7296 22.3987L60.7233 22.4036L60.7171 22.4086L61.3418 23.1895ZM52.3594 16.5859V15.5859H51.3594V16.5859H52.3594ZM46.5508 44.3125V10.7207H44.5508V44.3125H46.5508ZM45.5508 11.7207H58.5527V9.7207H45.5508V11.7207ZM58.5527 11.7207C62.2101 11.7207 64.7277 12.5065 66.3001 13.8911L67.6218 12.3901C65.5301 10.5482 62.4422 9.7207 58.5527 9.7207V11.7207ZM66.3064 13.8967C67.8825 15.261 68.709 17.1658 68.709 19.7441H70.709C70.709 16.6897 69.7035 14.1921 67.6154 12.3846L66.3064 13.8967ZM68.709 19.7441C68.709 21.0835 68.3946 22.2411 67.7868 23.2463L69.4983 24.2811C70.3124 22.9347 70.709 21.4126 70.709 19.7441H68.709ZM67.7833 23.2522C67.1835 24.2598 66.4013 25.0393 65.4304 25.6077L66.4407 27.3337C67.712 26.5896 68.7344 25.5644 69.5019 24.2752L67.7833 23.2522ZM65.5538 27.395C66.6063 27.8297 67.6056 28.6384 68.536 29.8956L70.1437 28.7059C69.0506 27.2288 67.7804 26.1508 66.3173 25.5464L65.5538 27.395ZM68.5418 29.9034C69.399 31.0386 69.8574 32.4837 69.8574 34.3047H71.8574C71.8574 32.1335 71.3041 30.2426 70.1379 28.6982L68.5418 29.9034ZM69.8574 34.3047C69.8574 36.9934 69.0004 39.1362 67.3202 40.8163L68.7345 42.2305C70.8277 40.1373 71.8574 37.4675 71.8574 34.3047H69.8574ZM67.3254 40.8112C65.6713 42.4414 63.3382 43.3125 60.1934 43.3125V45.3125C63.7204 45.3125 66.61 44.3243 68.7293 42.2357L67.3254 40.8112ZM60.1934 43.3125H45.5508V45.3125H60.1934V43.3125ZM52.3594 39.4883H59.209V37.4883H52.3594V39.4883ZM59.209 39.4883C60.6252 39.4883 61.8986 39.0642 62.9861 38.2074L61.7483 36.6364C61.0311 37.2015 60.199 37.4883 59.209 37.4883V39.4883ZM62.9746 38.2162C64.1952 37.2828 64.7617 35.9242 64.7617 34.3047H62.7617C62.7617 35.4196 62.3985 36.139 61.7597 36.6275L62.9746 38.2162ZM64.7617 34.3047C64.7617 32.8063 64.2629 31.505 63.2384 30.4804L61.8241 31.8946C62.4402 32.5106 62.7617 33.2874 62.7617 34.3047H64.7617ZM63.2615 30.5043C62.2243 29.3956 60.7604 28.916 59.0449 28.916V30.916C60.392 30.916 61.2522 31.284 61.801 31.8707L63.2615 30.5043ZM59.0449 28.916H52.3594V30.916H59.0449V28.916ZM51.3594 29.916V38.4883H53.3594V29.916H51.3594ZM52.3594 25.1738H58.0195V23.1738H52.3594V25.1738ZM58.0195 25.1738C59.5666 25.1738 60.9183 24.8089 61.9665 23.9703L60.7171 22.4086C60.1247 22.8825 59.2615 23.1738 58.0195 23.1738V25.1738ZM61.954 23.9802C63.0959 23.0961 63.6133 21.8031 63.6133 20.2773H61.6133C61.6133 21.3219 61.283 21.9703 60.7296 22.3987L61.954 23.9802ZM63.6133 20.2773C63.6133 18.8369 63.1679 17.5928 62.1323 16.7377C61.1334 15.9129 59.7453 15.5859 58.1426 15.5859V17.5859C59.5203 17.5859 60.3676 17.8742 60.8589 18.2799C61.3135 18.6553 61.6133 19.2569 61.6133 20.2773H63.6133ZM58.1426 15.5859H52.3594V17.5859H58.1426V15.5859ZM51.3594 16.5859V24.1738H53.3594V16.5859H51.3594ZM79.7914 16.2266L79.0253 15.5838L79.0248 15.5844L79.7914 16.2266ZM100.065 16.2266L99.2955 16.8655L99.3015 16.8725L100.065 16.2266ZM100.065 40.4453L99.3014 39.7994L99.2982 39.8032L100.065 40.4453ZM84.5961 36.5L83.7556 37.0419L84.5961 36.5ZM95.2992 36.5L96.1397 37.0419L96.1429 37.0369L95.2992 36.5ZM95.2992 20.2109L96.1429 19.6741L95.2992 20.2109ZM84.5961 20.2109L83.7524 19.6741L84.5961 20.2109ZM76.9633 28.3359C76.9633 23.481 78.1931 19.6921 80.558 16.8687L79.0248 15.5844C76.2856 18.8548 74.9633 23.1388 74.9633 28.3359H76.9633ZM80.5575 16.8693C82.936 14.0344 86.0352 12.6172 89.9477 12.6172V10.6172C85.4747 10.6172 81.8031 12.2729 79.0253 15.5838L80.5575 16.8693ZM89.9477 12.6172C93.8599 12.6172 96.944 14.034 99.2956 16.8655L100.834 15.5877C98.0815 12.2733 94.4208 10.6172 89.9477 10.6172V12.6172ZM99.3015 16.8725C101.69 19.6959 102.932 23.4834 102.932 28.3359H104.932C104.932 23.1364 103.595 18.851 100.828 15.5806L99.3015 16.8725ZM102.932 28.3359C102.932 33.1885 101.69 36.976 99.3015 39.7994L100.828 41.0913C103.595 37.8209 104.932 33.5354 104.932 28.3359H102.932ZM99.2982 39.8032C96.9478 42.6094 93.8631 44.0156 89.9477 44.0156V46.0156C94.4177 46.0156 98.0777 44.375 100.831 41.0874L99.2982 39.8032ZM89.9477 44.0156C86.004 44.0156 82.9071 42.6078 80.558 39.8032L79.0248 41.0874C81.7798 44.3766 85.4538 46.0156 89.9477 46.0156V44.0156ZM80.558 39.8032C78.1931 36.9798 76.9633 33.1909 76.9633 28.3359H74.9633C74.9633 33.5331 76.2856 37.8171 79.0248 41.0874L80.558 39.8032ZM81.682 28.3359C81.682 31.9064 82.3373 34.842 83.7556 37.0419L85.4366 35.9581C84.3028 34.1997 83.682 31.6925 83.682 28.3359H81.682ZM83.7556 37.0419C85.2097 39.2971 87.305 40.4688 89.9477 40.4688V38.4688C88.007 38.4688 86.5346 37.6612 85.4366 35.9581L83.7556 37.0419ZM89.9477 40.4688C92.5903 40.4688 94.6857 39.2971 96.1397 37.0419L94.4588 35.9581C93.3607 37.6612 91.8883 38.4688 89.9477 38.4688V40.4688ZM96.1429 37.0369C97.557 34.8147 98.2133 31.8832 98.2133 28.3359H96.2133C96.2133 31.6636 95.5935 34.1749 94.4556 35.9631L96.1429 37.0369ZM98.2133 28.3359C98.2133 24.8129 97.5563 21.8952 96.1429 19.6741L94.4556 20.7478C95.5942 22.5371 96.2133 25.036 96.2133 28.3359H98.2133ZM96.1429 19.6741C94.6915 17.3934 92.5963 16.2031 89.9477 16.2031V18.2031C91.8823 18.2031 93.3548 19.0181 94.4556 20.7478L96.1429 19.6741ZM89.9477 16.2031C87.299 16.2031 85.2038 17.3934 83.7524 19.6741L85.4398 20.7478C86.5405 19.0181 88.013 18.2031 89.9477 18.2031V16.2031ZM83.7524 19.6741C82.339 21.8952 81.682 24.8129 81.682 28.3359H83.682C83.682 25.036 84.3011 22.5371 85.4398 20.7478L83.7524 19.6741ZM112.311 17.6309L111.545 16.9881L111.544 16.9887L112.311 17.6309ZM131.571 17.6309L130.801 18.2698L130.807 18.2768L131.571 17.6309ZM131.571 40.6387L130.807 39.9927L130.804 39.9966L131.571 40.6387ZM116.875 36.8906L116.035 37.4325L116.875 36.8906ZM127.043 36.8906L127.884 37.4325L127.887 37.4275L127.043 36.8906ZM127.043 21.416L127.887 20.8791L127.043 21.416ZM116.875 21.416L116.032 20.8791L116.875 21.416ZM109.674 29.1348C109.674 24.5311 110.84 20.9441 113.078 18.273L111.544 16.9887C108.933 20.1067 107.674 24.1889 107.674 29.1348H109.674ZM113.077 18.2736C115.327 15.5923 118.257 14.252 121.959 14.252V12.252C117.696 12.252 114.194 13.8309 111.545 16.9881L113.077 18.2736ZM121.959 14.252C125.662 14.252 128.577 15.592 130.801 18.2698L132.34 16.992C129.715 13.8312 126.223 12.252 121.959 12.252V14.252ZM130.807 18.2768C133.067 20.9479 134.245 24.5335 134.245 29.1348H136.245C136.245 24.1866 134.972 20.1029 132.334 16.9849L130.807 18.2768ZM134.245 29.1348C134.245 33.736 133.067 37.3217 130.807 39.9927L132.334 41.2846C134.972 38.1666 136.245 34.083 136.245 29.1348H134.245ZM130.804 39.9966C128.581 42.6504 125.665 43.9805 121.959 43.9805V45.9805C126.22 45.9805 129.711 44.416 132.337 41.2808L130.804 39.9966ZM121.959 43.9805C118.227 43.9805 115.299 42.6488 113.078 39.9966L111.544 41.2808C114.172 44.4176 117.676 45.9805 121.959 45.9805V43.9805ZM113.078 39.9966C110.84 37.3255 109.674 33.7384 109.674 29.1348H107.674C107.674 34.0806 108.933 38.1628 111.544 41.2808L113.078 39.9966ZM114.057 29.1348C114.057 32.5321 114.68 35.3315 116.035 37.4325L117.716 36.3488C116.646 34.6893 116.057 32.3182 116.057 29.1348H114.057ZM116.035 37.4325C117.425 39.5888 119.431 40.7109 121.959 40.7109V38.7109C120.133 38.7109 118.75 37.9529 117.716 36.3488L116.035 37.4325ZM121.959 40.7109C124.487 40.7109 126.494 39.5888 127.884 37.4325L126.203 36.3488C125.169 37.9529 123.785 38.7109 121.959 38.7109V40.7109ZM127.887 37.4275C129.237 35.3056 129.862 32.5102 129.862 29.1348H127.862C127.862 32.2906 127.274 34.6657 126.2 36.3537L127.887 37.4275ZM129.862 29.1348C129.862 25.7823 129.237 23 127.887 20.8791L126.2 21.9529C127.275 23.6419 127.862 26.0054 127.862 29.1348H129.862ZM127.887 20.8791C126.499 18.6987 124.493 17.5586 121.959 17.5586V19.5586C123.779 19.5586 125.163 20.3234 126.2 21.9529L127.887 20.8791ZM121.959 17.5586C119.425 17.5586 117.419 18.6987 116.032 20.8791L117.719 21.9529C118.756 20.3234 120.139 19.5586 121.959 19.5586V17.5586ZM116.032 20.8791C114.682 23 114.057 25.7823 114.057 29.1348H116.057C116.057 26.0054 116.644 23.6419 117.719 21.9529L116.032 20.8791ZM141.258 44.3125H140.258V45.3125H141.258V44.3125ZM141.258 15.5195V14.5195H140.258V15.5195H141.258ZM147.094 15.5195H148.094V14.5195H147.094V15.5195ZM147.094 27.1914H146.094V28.1914H147.094V27.1914ZM147.199 27.1914V28.1914H147.659L147.958 27.8428L147.199 27.1914ZM157.219 15.5195V14.5195H156.759L156.46 14.8682L157.219 15.5195ZM164.531 15.5195L165.278 16.1851L166.763 14.5195H164.531V15.5195ZM153.246 28.1758L152.5 27.5103L151.972 28.1024L152.428 28.7513L153.246 28.1758ZM164.602 44.3125V45.3125H166.528L165.419 43.737L164.602 44.3125ZM157.641 44.3125L156.81 44.8689L157.107 45.3125H157.641V44.3125ZM149.59 32.2891L150.421 31.7327L149.701 30.6575L148.842 31.6253L149.59 32.2891ZM147.094 35.1016L146.346 34.4378L146.094 34.7218V35.1016H147.094ZM147.094 44.3125V45.3125H148.094V44.3125H147.094ZM142.258 44.3125V15.5195H140.258V44.3125H142.258ZM141.258 16.5195H147.094V14.5195H141.258V16.5195ZM146.094 15.5195V27.1914H148.094V15.5195H146.094ZM147.094 28.1914H147.199V26.1914H147.094V28.1914ZM147.958 27.8428L157.978 16.1709L156.46 14.8682L146.44 26.5401L147.958 27.8428ZM157.219 16.5195H164.531V14.5195H157.219V16.5195ZM163.785 14.854L152.5 27.5103L153.992 28.8413L165.278 16.1851L163.785 14.854ZM152.428 28.7513L163.784 44.888L165.419 43.737L154.064 27.6003L152.428 28.7513ZM164.602 43.3125H157.641V45.3125H164.602V43.3125ZM158.472 43.7561L150.421 31.7327L148.759 32.8454L156.81 44.8689L158.472 43.7561ZM148.842 31.6253L146.346 34.4378L147.842 35.7653L150.338 32.9528L148.842 31.6253ZM146.094 35.1016V44.3125H148.094V35.1016H146.094ZM147.094 43.3125H141.258V45.3125H147.094V43.3125ZM168.898 44.3125H167.898V45.3125H168.898V44.3125ZM168.898 15.5195V14.5195H167.898V15.5195H168.898ZM187.777 15.5195H188.777V14.5195H187.777V15.5195ZM187.777 20.5469V21.5469H188.777V20.5469H187.777ZM174.734 20.5469V19.5469H173.734V20.5469H174.734ZM174.734 27.4375H173.734V28.4375H174.734V27.4375ZM186.405 27.4375H187.405V26.4375H186.405V27.4375ZM186.405 32.3945V33.3945H187.405V32.3945H186.405ZM174.734 32.3945V31.3945H173.734V32.3945H174.734ZM174.734 44.3125V45.3125H175.734V44.3125H174.734ZM169.898 44.3125V15.5195H167.898V44.3125H169.898ZM168.898 16.5195H187.777V14.5195H168.898V16.5195ZM186.777 15.5195V20.5469H188.777V15.5195H186.777ZM187.777 19.5469H174.734V21.5469H187.777V19.5469ZM173.734 20.5469V27.4375H175.734V20.5469H173.734ZM174.734 28.4375H186.405V26.4375H174.734V28.4375ZM185.405 27.4375V32.3945H187.405V27.4375H185.405ZM186.405 31.3945H174.734V33.3945H186.405V31.3945ZM173.734 32.3945V44.3125H175.734V32.3945H173.734ZM174.734 43.3125H168.898V45.3125H174.734V43.3125ZM193 44.3125H192V45.3125H193V44.3125ZM193 13.9199V12.9199H192V13.9199H193ZM199.161 13.9199H200.161V12.9199H199.161V13.9199ZM199.161 39.043H198.161V40.043H199.161V39.043ZM212.52 39.043H213.52V38.043H212.52V39.043ZM212.52 44.3125V45.3125H213.52V44.3125H212.52ZM194 44.3125V13.9199H192V44.3125H194ZM193 14.9199H199.161V12.9199H193V14.9199ZM198.161 13.9199V39.043H200.161V13.9199H198.161ZM199.161 40.043H212.52V38.043H199.161V40.043ZM211.52 39.043V44.3125H213.52V39.043H211.52ZM212.52 43.3125H193V45.3125H212.52V43.3125ZM217.914 44.3125H216.914V45.3125H217.914V44.3125ZM217.914 12.3203V11.3203H216.914V12.3203H217.914ZM224.398 12.3203H225.398V11.3203H224.398V12.3203ZM224.398 44.3125V45.3125H225.398V44.3125H224.398ZM218.914 44.3125V12.3203H216.914V44.3125H218.914ZM217.914 13.3203H224.398V11.3203H217.914V13.3203ZM223.398 12.3203V44.3125H225.398V12.3203H223.398ZM224.398 43.3125H217.914V45.3125H224.398V43.3125ZM229.65 44.3125L228.798 43.7891L227.863 45.3125H229.65V44.3125ZM240.232 27.0859L241.084 27.6094L241.405 27.0871L241.086 26.5642L240.232 27.0859ZM230.225 10.7207V9.7207H228.441L229.371 11.2424L230.225 10.7207ZM238.1 10.7207L238.985 10.2565L238.705 9.7207H238.1V10.7207ZM241.668 17.5293L240.782 17.9935L240.791 18.0096L240.8 18.0254L241.668 17.5293ZM244.047 22.041L243.144 22.4709L243.415 23.041H244.047V22.041ZM244.211 22.041V23.041H244.829L245.105 22.4882L244.211 22.041ZM246.59 17.5293L247.468 18.0073L247.473 17.9977L246.59 17.5293ZM250.199 10.7207V9.7207H249.598L249.316 10.2523L250.199 10.7207ZM258.074 10.7207L258.926 11.244L259.862 9.7207H258.074V10.7207ZM248.025 27.0859L247.173 26.5627L246.851 27.0871L247.174 27.6108L248.025 27.0859ZM258.648 44.3125V45.3125H260.44L259.5 43.7876L258.648 44.3125ZM250.855 44.3125L249.98 44.7957L250.265 45.3125H250.855V44.3125ZM246.713 36.8066L247.588 36.3234L247.581 36.3106L247.574 36.2979L246.713 36.8066ZM244.211 32.2539L245.089 31.7751L244.805 31.2539H244.211V32.2539ZM244.047 32.2539V31.2539H243.429L243.152 31.8067L244.047 32.2539ZM242.98 34.2637L242.098 33.7931L242.094 33.8004L242.98 34.2637ZM241.586 36.8066L240.733 36.2852L240.72 36.3059L240.708 36.3271L241.586 36.8066ZM237.484 44.3125V45.3125H238.077L238.362 44.792L237.484 44.3125ZM230.502 44.8359L241.084 27.6094L239.38 26.5625L228.798 43.7891L230.502 44.8359ZM241.086 26.5642L231.078 10.199L229.371 11.2424L239.379 27.6076L241.086 26.5642ZM230.225 11.7207H238.1V9.7207H230.225V11.7207ZM237.214 11.1849L240.782 17.9935L242.554 17.0651L238.985 10.2565L237.214 11.1849ZM240.8 18.0254C240.901 18.2021 241.248 18.8427 241.853 19.9709L243.616 19.0252C243.018 17.9112 242.654 17.2393 242.536 17.0332L240.8 18.0254ZM241.853 19.9709C242.453 21.0888 242.881 21.9192 243.144 22.4709L244.95 21.6111C244.666 21.0144 244.219 20.1495 243.616 19.0252L241.853 19.9709ZM244.047 23.041H244.211V21.041H244.047V23.041ZM245.105 22.4882C245.672 21.3546 246.459 19.862 247.468 18.0072L245.711 17.0514C244.697 18.9153 243.898 20.4306 243.317 21.5938L245.105 22.4882ZM247.473 17.9977L251.083 11.1891L249.316 10.2523L245.706 17.0609L247.473 17.9977ZM250.199 11.7207H258.074V9.7207H250.199V11.7207ZM257.222 10.1974L247.173 26.5627L248.878 27.6092L258.926 11.244L257.222 10.1974ZM247.174 27.6108L257.797 44.8374L259.5 43.7876L248.877 26.561L247.174 27.6108ZM258.648 43.3125H250.855V45.3125H258.648V43.3125ZM251.731 43.8293L247.588 36.3234L245.837 37.2898L249.98 44.7957L251.731 43.8293ZM247.574 36.2979C247.228 35.7131 246.771 34.8924 246.199 33.8306L244.438 34.7788C245.015 35.8498 245.487 36.6971 245.852 37.3154L247.574 36.2979ZM246.199 33.8306C245.625 32.7649 245.254 32.0787 245.089 31.7751L243.333 32.7328C243.496 33.0307 243.863 33.7117 244.438 34.7788L246.199 33.8306ZM244.211 31.2539H244.047V33.2539H244.211V31.2539ZM243.152 31.8067C243.106 31.9006 242.76 32.5519 242.098 33.7931L243.863 34.7343C244.513 33.5145 244.879 32.826 244.941 32.7011L243.152 31.8067ZM242.094 33.8004C241.466 35.003 241.014 35.8243 240.733 36.2852L242.439 37.3281C242.759 36.8046 243.237 35.9306 243.867 34.7269L242.094 33.8004ZM240.708 36.3271L236.607 43.833L238.362 44.792L242.463 37.2862L240.708 36.3271ZM237.484 43.3125H229.65V45.3125H237.484V43.3125Z" fill="white"/>
</g>
<g filter="url(#filter1_d_127_2)">
<path d="M36.7361 62.5618H40.0695L38.4143 58.2859L36.7361 62.5618ZM40.0005 56.4928L43.5178 66.125H41.3109L40.5063 63.8491H36.2994L35.5178 66.125H33.3109L36.8051 56.4928H40.0005ZM47.6048 66.125V56.4928H49.8806L53.3289 62.3779V56.5158H55.5588V66.125H53.237L49.8117 60.3319V66.125H47.6048ZM68.6715 66.125V56.4928H70.8784V66.125H68.6715ZM75.6087 66.125V56.4928H77.8845L81.3328 62.3779V56.5158H83.5627V66.125H81.2409L77.8156 60.3319V66.125H75.6087ZM95.5363 57.7802H92.9157V66.125H90.6858V57.7802H88.0651V56.4928H95.5363V57.7802ZM106.292 66.125H99.6946V56.4928H106.292V57.7802H101.902V60.3549H105.35V61.6422H101.902V64.8376H106.292V66.125ZM117.515 66.125H110.917V56.4928H113.124V64.8376H117.515V66.125ZM128.679 66.125H122.081V56.4928H124.288V64.8376H128.679V66.125ZM133.429 66.125V56.4928H135.636V66.125H133.429ZM144.435 64.8376C145.064 64.8376 145.378 64.6231 145.378 64.194V62.8836H143.7V61.5963H147.585V64.4009C147.585 64.9373 147.309 65.3587 146.757 65.6652C146.252 65.9717 145.623 66.125 144.872 66.125H143.079C141.899 66.125 141.071 65.7955 140.596 65.1365C140.443 64.9219 140.366 64.6767 140.366 64.4009V58.217C140.366 57.6959 140.627 57.2821 141.148 56.9756C141.684 56.6537 142.328 56.4928 143.079 56.4928H144.872C145.623 56.4928 146.259 56.6461 146.78 56.9526C147.317 57.2591 147.585 57.6806 147.585 58.217V59.5043H145.378V58.4239C145.378 57.9947 145.064 57.7802 144.435 57.7802H143.516C142.888 57.7802 142.573 57.9947 142.573 58.4239V64.194C142.573 64.6231 142.888 64.8376 143.516 64.8376H144.435ZM158.831 66.125H152.234V56.4928H158.831V57.7802H154.441V60.3549H157.889V61.6422H154.441V64.8376H158.831V66.125ZM163.456 66.125V56.4928H165.732L169.18 62.3779V56.5158H171.41V66.125H169.089L165.663 60.3319V66.125H163.456ZM183.384 57.7802H180.763V66.125H178.533V57.7802H175.913V56.4928H183.384V57.7802ZM202.199 66.125H195.601V56.4928H197.808V64.8376H202.199V66.125ZM206.949 66.125V56.4928H209.156V66.125H206.949ZM218.346 58.4239C218.346 57.9947 218.039 57.7802 217.426 57.7802H216.093V60.3549H217.426C217.733 60.3549 217.963 60.2936 218.116 60.171C218.269 60.0484 218.346 59.8951 218.346 59.7112V58.4239ZM218.622 62.2859C218.622 61.8875 218.33 61.6729 217.748 61.6422H216.093V64.8376H217.702C218.315 64.8376 218.622 64.6231 218.622 64.194V62.2859ZM220.829 64.4009C220.829 64.9373 220.553 65.3587 220.001 65.6652C219.495 65.9717 218.875 66.125 218.139 66.125H213.886V56.4928H217.863C219.043 56.4928 219.871 56.8223 220.346 57.4813C220.499 57.6959 220.576 57.9411 220.576 58.217V59.8261C220.576 60.1327 220.445 60.4085 220.185 60.6537C220.108 60.7457 220.009 60.8223 219.886 60.8836C220.514 61.2361 220.829 61.6346 220.829 62.079V64.4009ZM229.281 60.5618C229.909 60.5618 230.224 60.3472 230.224 59.9181V58.4239C230.224 57.9947 229.909 57.7802 229.281 57.7802H227.511V60.5618H229.281ZM229.764 61.8491L232.936 66.125H230.614L227.511 61.9411V66.125H225.304V56.4928H229.741C230.476 56.4928 231.105 56.6461 231.626 56.9526C232.162 57.2591 232.43 57.6806 232.43 58.217V60.125C232.43 60.6614 232.17 61.0829 231.649 61.3894C231.128 61.6959 230.499 61.8491 229.764 61.8491ZM239.654 62.5618H242.987L241.332 58.2859L239.654 62.5618ZM242.918 56.4928L246.436 66.125H244.229L243.424 63.8491H239.217L238.436 66.125H236.229L239.723 56.4928H242.918ZM254.5 60.5618C255.128 60.5618 255.442 60.3472 255.442 59.9181V58.4239C255.442 57.9947 255.128 57.7802 254.5 57.7802H252.73V60.5618H254.5ZM254.983 61.8491L258.155 66.125H255.833L252.73 61.9411V66.125H250.523V56.4928H254.96C255.695 56.4928 256.324 56.6461 256.845 56.9526C257.381 57.2591 257.649 57.6806 257.649 58.217V60.125C257.649 60.6614 257.389 61.0829 256.868 61.3894C256.346 61.6959 255.718 61.8491 254.983 61.8491ZM263.608 56.4928L266.045 59.8032L268.505 56.4928H270.712L267.149 61.2974V66.125H264.942V61.2974L261.402 56.4928H263.608Z" fill="white"/>
</g>
<defs>
<filter id="filter0_d_127_2" x="40.5508" y="9.7207" width="223.098" height="44.2949" filterUnits="userSpaceOnUse" color-interpolation-filters="sRGB">
<feFlood flood-opacity="0" result="BackgroundImageFix"/>
<feColorMatrix in="SourceAlpha" type="matrix" values="0 0 0 0 0 0 0 0 0 0 0 0 0 0 0 0 0 0 127 0" result="hardAlpha"/>
<feOffset dy="4"/>
<feGaussianBlur stdDeviation="2.5"/>
<feComposite in2="hardAlpha" operator="out"/>
<feColorMatrix type="matrix" values="0 0 0 0 0 0 0 0 0 0 0 0 0 0 0 0 0 0 0.19 0"/>
<feBlend mode="normal" in2="BackgroundImageFix" result="effect1_dropShadow_127_2"/>
<feBlend mode="normal" in="SourceGraphic" in2="effect1_dropShadow_127_2" result="shape"/>
</filter>
<filter id="filter1_d_127_2" x="29.3109" y="56.4928" width="245.401" height="17.6322" filterUnits="userSpaceOnUse" color-interpolation-filters="sRGB">
<feFlood flood-opacity="0" result="BackgroundImageFix"/>
<feColorMatrix in="SourceAlpha" type="matrix" values="0 0 0 0 0 0 0 0 0 0 0 0 0 0 0 0 0 0 127 0" result="hardAlpha"/>
<feOffset dy="4"/>
<feGaussianBlur stdDeviation="2"/>
<feComposite in2="hardAlpha" operator="out"/>
<feColorMatrix type="matrix" values="0 0 0 0 0 0 0 0 0 0 0 0 0 0 0 0 0 0 0.25 0"/>
<feBlend mode="normal" in2="BackgroundImageFix" result="effect1_dropShadow_127_2"/>
<feBlend mode="normal" in="SourceGraphic" in2="effect1_dropShadow_127_2" result="shape"/>
</filter>
</defs>
</svg>
